PathFileType	4	(X/Y/Z)	/Users/itak/Documents/Research/Walk-IL/dataset/trc/00329_00011.trc
DataRate	CameraRate	NumFrames	NumMarkers	Units	OrigDataRate	OrigDataStartFrame	OrigNumFrames
100.000000	100.000000	4	53	mm	100.000000	68	548
Frame#	Time	RPSI			LPSI			L3			STRN			T10			C7			CLAV			RBAK			LBAK			LSHO			LUPA			LAEL			LAOL			LWTS			LWPS			LFRA			LIFD			LHPS			LHTS			RSHO			RUPA			RAEL			RAOL			RWTS			RWPS			RFRA			RIFD			RHTS			RHPS			RBHD			LFHD			RFHD			LBHD			LHIP			RHIP			RASI			LASI			LKNE			LTHI			LANK			LTIP			LTOE			LMT5			LHEE			RKNE			RTHI			RANK			RTIP			RTOE			RMT1			RMT5			RHEE			LMT1			
		X1	Y1	Z1	X2	Y2	Z2	X3	Y3	Z3	X4	Y4	Z4	X5	Y5	Z5	X6	Y6	Z6	X7	Y7	Z7	X8	Y8	Z8	X9	Y9	Z9	X10	Y10	Z10	X11	Y11	Z11	X12	Y12	Z12	X13	Y13	Z13	X14	Y14	Z14	X15	Y15	Z15	X16	Y16	Z16	X17	Y17	Z17	X18	Y18	Z18	X19	Y19	Z19	X20	Y20	Z20	X21	Y21	Z21	X22	Y22	Z22	X23	Y23	Z23	X24	Y24	Z24	X25	Y25	Z25	X26	Y26	Z26	X27	Y27	Z27	X28	Y28	Z28	X29	Y29	Z29	X30	Y30	Z30	X31	Y31	Z31	X32	Y32	Z32	X33	Y33	Z33	X34	Y34	Z34	X35	Y35	Z35	X36	Y36	Z36	X37	Y37	Z37	X38	Y38	Z38	X39	Y39	Z39	X40	Y40	Z40	X41	Y41	Z41	X42	Y42	Z42	X43	Y43	Z43	X44	Y44	Z44	X45	Y45	Z45	X46	Y46	Z46	X47	Y47	Z47	X48	Y48	Z48	X49	Y49	Z49	X50	Y50	Z50	X51	Y51	Z51	X52	Y52	Z52	X53	Y53	Z53	

69	0.68	869.0147705078125	971.9949951171875	222.4270935058594	865.9049072265625	971.33447265625	93.93222045898438	863.8325805664062	1025.721435546875	165.0025482177734	1081.681518554688	1215.110595703125	137.5768432617188	844.434814453125	1145.35400390625	155.9221649169922	873.2822265625	1393.914184570312	131.6682891845703	1033.220458984375	1337.881713867188	131.3801574707031	832.2495727539062	1257.64892578125	208.3552703857422	863.4161987304688	1352.894775390625	31.00102424621582	946.6117553710938	1371.036010742188	-28.5629711151123	933.8685302734375	1248.4287109375	-93.36411285400391	964.6685180664062	1044.422241210938	-96.83847808837891	900.3189086914062	1030.5029296875	-43.06130981445312	1068.380737304688	807.2286376953125	-36.41867828369141	1033.32470703125	793.00341796875	-94.17937469482422	985.9306030273438	941.0770263671875	-98.4310302734375	1076.85791015625	646.7105102539062	-25.36625289916992	1032.255249023438	722.5617065429688	-85.84165191650391	1083.839965820312	728.9400634765625	-48.92557907104492	944.2234497070312	1385.063598632812	290.5519714355469	942.436767578125	1322.007934570312	359.6943664550781	964.6273803710938	1053.080688476562	391.9439697265625	904.84033203125	1043.2294921875	318.9952392578125	1067.950805664062	827.7084350585938	322.3731994628906	1049.6123046875	812.7825317382812	395.0143737792969	994.11962890625	986.6262817382812	394.7362060546875	1089.557983398438	656.2501831054688	324.8541259765625	1103.538330078125	728.380859375	330.1911926269531	1066.604614257812	728.4083251953125	389.4121398925781	897.3661499023438	1592.481201171875	207.6008148193359	1064.4892578125	1625.752807617188	87.68158721923828	1055.259521484375	1625.682739257812	188.5508575439453	883.94091796875	1583.773681640625	63.67179107666016	950.4302978515625	911.6566772460938	-10.99792766571045	951.0167846679688	917.30517578125	329.5662841796875	1054.400146484375	946.7966918945312	284.4190979003906	1072.404418945312	939.9537963867188	43.82195281982422	974.0758666992188	456.1474609375	2.008208274841309	983.5018920898438	594.125	-8.618340492248535	891.58056640625	39.03025054931641	16.99492073059082	929.2954711914062	241.45849609375	-3.113410234451294	1097.53662109375	32.04743957519531	74.81429290771484	1016.662963867188	36.4620361328125	2.6834397315979	857.9979858398438	34.71029281616211	84.63145446777344	966.0140991210938	453.4400634765625	302.8170471191406	1012.198486328125	711.228759765625	330.7995910644531	900.3135986328125	41.37883377075195	275.4403686523438	966.2996215820312	334.9258422851562	294.6442565917969	1089.995727539062	35.4066047668457	214.1304016113281	1031.643676757812	31.01028823852539	176.9528350830078	1002.037963867188	26.24410820007324	291.22509765625	847.4014892578125	43.52295684814453	230.2843475341797	1029.147216796875	20.58184814453125	115.2230224609375	
70	0.6900000000000001	868.7184448242188	971.9658813476562	222.5216064453125	865.6957397460938	971.2970581054688	94.03800964355469	863.6423950195312	1025.778564453125	165.0912170410156	1081.5107421875	1215.038940429688	137.9430999755859	844.2749633789062	1145.476928710938	155.9510803222656	873.2760009765625	1393.988037109375	131.7274169921875	1033.140380859375	1337.769287109375	131.7454681396484	832.150146484375	1257.711059570312	208.4063262939453	863.5367431640625	1352.941528320312	31.03592109680176	946.85888671875	1371.087524414062	-28.39039039611816	934.2396850585938	1248.46533203125	-93.22482299804688	964.9654541015625	1044.508544921875	-96.74559020996094	900.4356079101562	1030.598999023438	-43.08627319335938	1068.232421875	807.0586547851562	-36.17485427856445	1033.30810546875	792.9844970703125	-94.04159545898438	986.0995483398438	941.1176147460938	-98.35214996337891	1076.503784179688	646.5845336914062	-25.25627899169922	1032.160522460938	722.5564575195312	-85.75482177734375	1083.650024414062	728.7515258789062	-48.68731689453125	944.0302124023438	1385.073120117188	290.7003784179688	942.2770385742188	1322.091064453125	359.8683776855469	964.4826049804688	1053.119873046875	392.0980224609375	904.702880859375	1043.250244140625	319.279052734375	1067.850708007812	827.7816772460938	322.4432678222656	1049.468627929688	812.828369140625	395.1781005859375	993.912109375	986.6937255859375	394.9371032714844	1089.503540039062	656.3486938476562	325.0286254882812	1103.4462890625	728.5582885742188	330.2581481933594	1066.487182617188	728.478271484375	389.617431640625	897.15087890625	1592.435302734375	207.7152709960938	1064.387573242188	1625.9169921875	87.77845764160156	1055.058349609375	1625.808227539062	188.7241821289062	883.7857666015625	1583.692993164062	63.80690002441406	950.3460693359375	911.6687622070312	-10.83567428588867	950.6395263671875	917.2979125976562	329.69091796875	1054.048583984375	946.8809814453125	284.6700439453125	1072.277221679688	939.9407958984375	44.03449630737305	974.03466796875	456.1744689941406	2.081672430038452	983.3741455078125	594.1495361328125	-8.519106864929199	891.5784912109375	39.02753067016602	16.98686027526855	929.2669677734375	241.4636688232422	-3.096257448196411	1097.531860351562	32.04510498046875	74.809814453125	1016.661376953125	36.46109390258789	2.683675527572632	857.9956665039062	34.69183731079102	84.63024139404297	966.0983276367188	453.3828125	302.9028930664062	1012.226928710938	711.17919921875	330.8142700195312	900.3162841796875	41.38277435302734	275.4395751953125	966.373779296875	334.9320068359375	294.6626892089844	1090.010986328125	35.39602661132812	214.12744140625	1031.642700195312	31.00046157836914	176.9491882324219	1002.043579101562	26.25696754455566	291.2104187011719	847.4130859375	43.53154754638672	230.2813568115234	1029.144775390625	20.56807136535645	115.2324142456055	
71	0.7000000000000001	868.36181640625	971.95166015625	222.63623046875	865.4949340820312	971.2669067382812	94.15380859375	863.4320678710938	1025.83154296875	165.1837463378906	1081.3203125	1214.946899414062	138.322998046875	844.1087646484375	1145.595092773438	156.0039825439453	873.268310546875	1394.056640625	131.7989807128906	1033.053588867188	1337.666625976562	132.1079864501953	832.0376586914062	1257.775146484375	208.4633941650391	863.6514892578125	1352.989013671875	31.09199714660645	947.0938720703125	1371.147583007812	-28.19812774658203	934.6010131835938	1248.506225585938	-93.07756805419922	965.2575073242188	1044.601318359375	-96.65445709228516	900.5587158203125	1030.706176757812	-43.10696411132812	1068.090087890625	806.8988037109375	-35.94590759277344	1033.285034179688	792.9652099609375	-93.90456390380859	986.260009765625	941.1633911132812	-98.27367401123047	1076.118530273438	646.4306030273438	-25.15330696105957	1032.059692382812	722.56005859375	-85.68541717529297	1083.4560546875	728.5675659179688	-48.46096801757812	943.8291015625	1385.068237304688	290.8681640625	942.0752563476562	1322.15966796875	360.0674133300781	964.3438110351562	1053.150634765625	392.2894592285156	904.499267578125	1043.262084960938	319.6195678710938	1067.720825195312	827.854736328125	322.552490234375	1049.317016601562	812.8682861328125	395.345458984375	993.7018432617188	986.7514038085938	395.1496276855469	1089.418334960938	656.4705810546875	325.2235412597656	1103.340087890625	728.736083984375	330.3342895507812	1066.372802734375	728.5804443359375	389.841796875	896.9180908203125	1592.401123046875	207.837890625	1064.283203125	1626.066284179688	87.89919281005859	1054.86328125	1625.929565429688	188.8965301513672	883.6414794921875	1583.629638671875	63.93936538696289	950.2460327148438	911.6806640625	-10.64841747283936	950.2268676757812	917.2903442382812	329.8516845703125	1053.674072265625	946.9522094726562	284.9454345703125	1072.154174804688	939.970947265625	44.25783157348633	974.0089111328125	456.2059631347656	2.181710004806519	983.2708129882812	594.1629028320312	-8.388265609741211	891.5781860351562	39.02764511108398	16.98523712158203	929.241943359375	241.4704742431641	-3.068541526794434	1097.530883789062	32.04426956176758	74.80879211425781	1016.659240722656	36.46260452270508	2.687683343887329	857.9925537109375	34.67744827270508	84.63349914550781	966.1563110351562	453.3221130371094	303.0042114257812	1012.1796875	711.1494140625	330.8767700195312	900.3199462890625	41.38808822631836	275.4395751953125	966.43603515625	334.9408264160156	294.6856384277344	1090.026611328125	35.38597869873047	214.1245727539062	1031.640258789062	30.98440361022949	176.9398193359375	1002.048522949219	26.26942825317383	291.197265625	847.422607421875	43.53520965576172	230.2767028808594	1029.135864257812	20.53358268737793	115.2590866088867	
72	0.71	867.958251953125	971.953125	222.7736968994141	865.3171997070312	971.2479858398438	94.27748870849609	863.1981201171875	1025.88037109375	165.2825317382812	1081.107421875	1214.830932617188	138.7147979736328	843.945068359375	1145.703369140625	156.0847778320312	873.2584228515625	1394.11767578125	131.8822631835938	1032.9658203125	1337.580322265625	132.4564819335938	831.9068603515625	1257.840942382812	208.5245056152344	863.759765625	1353.037231445312	31.17130661010742	947.3140258789062	1371.212280273438	-27.98783874511719	934.9385986328125	1248.54931640625	-92.92265319824219	965.5344848632812	1044.695190429688	-96.56159210205078	900.6812133789062	1030.81884765625	-43.11949920654297	1067.95947265625	806.756103515625	-35.73816680908203	1033.2548828125	792.945068359375	-93.76904296875	986.40576171875	941.2100219726562	-98.19141387939453	1075.720092773438	646.2567138671875	-25.0538444519043	1031.953247070312	722.56884765625	-85.62977600097656	1083.262817382812	728.3876953125	-48.24547958374023	943.62353515625	1385.054809570312	291.0566711425781	941.828857421875	1322.209838867188	360.2886962890625	964.1925659179688	1053.179443359375	392.5267944335938	904.2201538085938	1043.269165039062	320.0013732910156	1067.5537109375	827.9292602539062	322.7147827148438	1049.1494140625	812.9058227539062	395.519287109375	993.4861450195312	986.7987060546875	395.3710327148438	1089.293701171875	656.6104125976562	325.4385681152344	1103.215087890625	728.900390625	330.4349365234375	1066.252197265625	728.712158203125	390.0877685546875	896.671630859375	1592.380859375	207.9675903320312	1064.171142578125	1626.19384765625	88.05032348632812	1054.672485351562	1626.04443359375	189.0687866210938	883.5103149414062	1583.583740234375	64.06719207763672	950.1307373046875	911.690673828125	-10.44037914276123	949.7981567382812	917.2827758789062	330.0484313964844	1053.29248046875	947.0071411132812	285.2386474609375	1072.034790039062	940.0455322265625	44.49101638793945	973.9974365234375	456.2406005859375	2.30517840385437	983.1953735351562	594.166015625	-8.225602149963379	891.5798950195312	39.03065490722656	16.98927307128906	929.2192993164062	241.4791717529297	-3.030787706375122	1097.533569335938	32.04507827758789	74.81137084960938	1016.65625	36.46789932250977	2.695274353027344	857.9882202148438	34.6662712097168	84.64124298095703	966.1822509765625	453.2592163085938	303.1207275390625	1012.043701171875	711.1421508789062	330.9974365234375	900.3244018554688	41.39449310302734	275.4398803710938	966.4884643554688	334.9532775878906	294.7139282226562	1090.041381835938	35.37609100341797	214.1211395263672	1031.637573242188	30.96444511413574	176.9264373779297	1002.052734375	26.28059959411621	291.1856994628906	847.430908203125	43.53569412231445	230.2698364257812	1029.121948242188	20.48568344116211	115.2977905273438	
